<?xml version="1.0" encoding="UTF-8"?>
<svg 
  id="_레이어_2" 
  data-name="레이어 2" 
  xmlns="http://www.w3.org/2000/svg" 
  viewBox="0 0 142.72 30.24"
  
>
  <defs>
    <style>
      .cls-1 {
        fill: #fff;
      }
    </style>
  </defs>
  <g id="_레이어_2-2" data-name=" 레이어 2">
    <g id="_레이어_1-2" data-name=" 레이어 1-2">
      <g>
        <path class="cls-1" d="m47.89,13.74h-6.72c-.5,0-.92-.17-1.25-.49-.33-.33-.5-.74-.5-1.24v-.69c0-.5.17-.91.5-1.24s.75-.49,1.25-.49h8.7v-1.42h-9.13c-.8,0-1.49.28-2.05.84-.56.56-.85,1.25-.85,2.04v1.3c0,.8.29,1.48.85,2.04.56.56,1.25.84,2.05.84h6.72c.5,0,.92.17,1.25.49.33.33.5.74.5,1.24v1.2c0,.49-.17.91-.5,1.24s-.75.5-1.25.5h-9.15v1.42h9.59c.8,0,1.48-.28,2.05-.84.56-.56.85-1.25.85-2.04v-1.81c0-.8-.29-1.48-.85-2.04s-1.25-.84-2.05-.84h0Z"/>
        <polygon class="cls-1" points="57.62 21.31 59.21 21.31 59.21 9.56 64.7 9.56 64.7 8.16 52.14 8.16 52.14 9.56 57.62 9.56 57.62 21.31"/>
        <rect class="cls-1" x="66.05" y="19.87" width="1.65" height="1.44"/>
        <rect class="cls-1" x="69.29" y="11.67" width="1.52" height="9.64"/>
        <rect class="cls-1" x="69.29" y="8.16" width="1.52" height="1.36"/>
        <path class="cls-1" d="m79.56,11.67h-4.39c-.77,0-1.43.25-1.98.74-.54.49-.81,1.08-.81,1.77v7.13h1.53v-6.75c0-.44.16-.81.48-1.1s.72-.43,1.19-.43h3.53c.47,0,.87.14,1.19.43s.48.66.48,1.1v6.75h1.54v-7.13c0-.68-.27-1.28-.81-1.77s-1.21-.74-1.98-.74h.03Z"/>
        <rect class="cls-1" x="83.93" y="8.16" width="1.52" height="1.36"/>
        <rect class="cls-1" x="83.93" y="11.67" width="1.52" height="9.64"/>
        <path class="cls-1" d="m88.56,9.77h-1.53c0,3.13.01,6.15.01,9.04,0,.68.27,1.28.82,1.76.55.49,1.21.74,1.98.74h3.25v-1.34h-3c-.43,0-.8-.16-1.09-.46-.29-.3-.43-.67-.43-1.08v-5.4h4.52v-1.36h-4.53s0-1.9,0-1.9Z"/>
        <rect class="cls-1" x="94.78" y="8.16" width="1.52" height="1.36"/>
        <rect class="cls-1" x="94.78" y="11.67" width="1.52" height="9.64"/>
        <path class="cls-1" d="m98.7,12.41c-.54.49-.82,1.08-.82,1.76v4.64c0,.68.27,1.28.82,1.76.55.49,1.22.74,1.99.74h7v-9.64h-7c-.78,0-1.45.25-1.99.74Zm7.46.63v6.92h-5.05c-.48,0-.89-.15-1.2-.43-.32-.29-.48-.66-.48-1.09v-3.88c0-.43.16-.8.48-1.09s.72-.43,1.2-.43c0,0,5.05,0,5.05,0Z"/>
        <path class="cls-1" d="m110.69,9.77h-1.53c0,3.13.01,6.15.01,9.04,0,.68.27,1.28.82,1.76.55.49,1.21.74,1.98.74h3.25v-1.34h-3c-.43,0-.8-.16-1.09-.46-.29-.3-.43-.67-.43-1.08v-5.4h4.52v-1.36h-4.53s0-1.9,0-1.9Z"/>
        <rect class="cls-1" x="116.91" y="11.67" width="1.52" height="9.64"/>
        <rect class="cls-1" x="116.91" y="8.16" width="1.52" height="1.36"/>
        <polygon class="cls-1" points="130.51 11.69 126.06 19.91 121.61 11.69 119.87 11.69 125.07 21.31 127.05 21.31 132.25 11.69 130.51 11.69"/>
        <path class="cls-1" d="m142.72,17.29v-3.11c0-.68-.27-1.28-.81-1.76-.54-.49-1.21-.74-1.98-.74h-4.23c-.77,0-1.44.25-1.98.74s-.81,1.08-.81,1.76v5.24c0,.53.21.96.65,1.33.44.37.97.56,1.6.56h6.67v-1.29h-6.36c-.28,0-.53-.07-.72-.21-.21-.15-.31-.35-.31-.59v-1.93h8.28,0Zm-8.28-2.73c0-.43.17-.8.49-1.09s.72-.43,1.2-.43h3.39c.47,0,.87.14,1.19.43.32.28.48.65.49,1.09v1.39h-6.75v-1.39h-.01Z"/>
        <g>
          <g>
            <path class="cls-1" d="m22.33,8.08l7.91.12-7.91.12c-.1,0-.18-.05-.18-.12s.08-.12.18-.12h0Z"/>
            <path class="cls-1" d="m21.66,8.78l7.91.12-7.91.12c-.1,0-.18-.05-.18-.12s.08-.12.18-.12h0Z"/>
            <path class="cls-1" d="m20.98,9.47l7.91.12-7.91.12c-.1,0-.18-.05-.18-.12s.08-.12.18-.12h0Z"/>
            <path class="cls-1" d="m20.35,10.16l7.91.12-7.91.12c-.1,0-.18-.05-.18-.12s.08-.12.18-.12h0Z"/>
            <path class="cls-1" d="m19.53,10.85l7.91.12-7.91.12c-.1,0-.18-.05-.18-.12s.08-.12.18-.12h0Z"/>
            <path class="cls-1" d="m18.96,11.54l7.91.12-7.91.12c-.1,0-.18-.05-.18-.12s.08-.12.18-.12h0Z"/>
            <path class="cls-1" d="m18.14,12.23l7.91.12-7.91.12c-.1,0-.18-.05-.18-.12s.08-.12.18-.12h0Z"/>
            <path class="cls-1" d="m17.51,12.92l7.91.12-7.91.12c-.1,0-.18-.05-.18-.12s.08-.12.18-.12h0Z"/>
            <path class="cls-1" d="m16.72,13.62l7.91.12-7.91.12c-.1,0-.18-.05-.18-.12s.08-.12.18-.12h0Z"/>
            <path class="cls-1" d="m16.11,14.31l7.91.12-7.91.12c-.1,0-.18-.05-.18-.12s.08-.12.18-.12h0Z"/>
            <path class="cls-1" d="m15.4,15l7.91.12-7.91.12c-.1,0-.18-.05-.18-.12s.08-.12.18-.12h0Z"/>
            <path class="cls-1" d="m16.11,15.69l7.91.12-7.91.12c-.1,0-.18-.05-.18-.12s.08-.12.18-.12h0Z"/>
            <path class="cls-1" d="m16.72,16.38l7.91.12-7.91.12c-.1,0-.18-.05-.18-.12s.08-.12.18-.12h0Z"/>
            <path class="cls-1" d="m17.51,17.07l7.91.12-7.91.12c-.1,0-.18-.05-.18-.12s.08-.12.18-.12h0Z"/>
            <path class="cls-1" d="m18.14,17.76l7.91.12-7.91.12c-.1,0-.18-.05-.18-.12s.08-.12.18-.12h0Z"/>
            <path class="cls-1" d="m18.96,18.46l7.91.12-7.91.12c-.1,0-.18-.05-.18-.12s.08-.12.18-.12h0Z"/>
            <path class="cls-1" d="m19.53,19.15l7.91.12-7.91.12c-.1,0-.18-.05-.18-.12s.08-.12.18-.12h0Z"/>
            <path class="cls-1" d="m20.35,19.84l7.91.12-7.91.12c-.1,0-.18-.05-.18-.12s.08-.12.18-.12h0Z"/>
            <path class="cls-1" d="m20.98,20.53l7.91.12-7.91.12c-.1,0-.18-.05-.18-.12s.08-.12.18-.12h0Z"/>
            <path class="cls-1" d="m21.66,21.22l7.91.12-7.91.12c-.1,0-.18-.05-.18-.12s.08-.12.18-.12h0Z"/>
            <path class="cls-1" d="m22.33,21.91l7.91.12-7.91.12c-.1,0-.18-.05-.18-.12s.08-.12.18-.12h0Z"/>
          </g>
          <g>
            <path class="cls-1" d="m7.91,8.08l-7.91.12,7.91.12c.1,0,.18-.05.18-.12s-.08-.12-.18-.12h0Z"/>
            <path class="cls-1" d="m8.58,8.78l-7.91.12,7.91.12c.1,0,.18-.05.18-.12s-.08-.12-.18-.12h0Z"/>
            <path class="cls-1" d="m9.26,9.47l-7.91.12,7.91.12c.1,0,.18-.05.18-.12s-.08-.12-.18-.12h0Z"/>
            <path class="cls-1" d="m9.89,10.16l-7.91.12,7.91.12c.1,0,.18-.05.18-.12s-.08-.12-.18-.12h0Z"/>
            <path class="cls-1" d="m10.71,10.85l-7.91.12,7.91.12c.1,0,.18-.05.18-.12s-.08-.12-.18-.12h0Z"/>
            <path class="cls-1" d="m11.27,11.54l-7.91.12,7.91.12c.1,0,.18-.05.18-.12s-.08-.12-.18-.12h0Z"/>
            <path class="cls-1" d="m12.1,12.23l-7.91.12,7.91.12c.1,0,.18-.05.18-.12s-.08-.12-.18-.12h0Z"/>
            <path class="cls-1" d="m12.73,12.92l-7.91.12,7.91.12c.1,0,.18-.05.18-.12s-.08-.12-.18-.12h0Z"/>
            <path class="cls-1" d="m13.52,13.62l-7.91.12,7.91.12c.1,0,.18-.05.18-.12s-.08-.12-.18-.12h0Z"/>
            <path class="cls-1" d="m14.12,14.31l-7.91.12,7.91.12c.1,0,.18-.05.18-.12s-.08-.12-.18-.12h0Z"/>
            <path class="cls-1" d="m14.84,15l-7.91.12,7.91.12c.1,0,.18-.05.18-.12s-.08-.12-.18-.12h0Z"/>
            <path class="cls-1" d="m14.12,15.69l-7.91.12,7.91.12c.1,0,.18-.05.18-.12s-.08-.12-.18-.12h0Z"/>
            <path class="cls-1" d="m13.52,16.38l-7.91.12,7.91.12c.1,0,.18-.05.18-.12s-.08-.12-.18-.12h0Z"/>
            <path class="cls-1" d="m12.73,17.07l-7.91.12,7.91.12c.1,0,.18-.05.18-.12s-.08-.12-.18-.12h0Z"/>
            <path class="cls-1" d="m12.1,17.76l-7.91.12,7.91.12c.1,0,.18-.05.18-.12s-.08-.12-.18-.12h0Z"/>
            <path class="cls-1" d="m11.27,18.46l-7.91.12,7.91.12c.1,0,.18-.05.18-.12s-.08-.12-.18-.12h0Z"/>
            <path class="cls-1" d="m10.71,19.15l-7.91.12,7.91.12c.1,0,.18-.05.18-.12s-.08-.12-.18-.12h0Z"/>
            <path class="cls-1" d="m9.89,19.84l-7.91.12,7.91.12c.1,0,.18-.05.18-.12s-.08-.12-.18-.12h0Z"/>
            <path class="cls-1" d="m9.26,20.53l-7.91.12,7.91.12c.1,0,.18-.05.18-.12s-.08-.12-.18-.12h0Z"/>
            <path class="cls-1" d="m8.58,21.22l-7.91.12,7.91.12c.1,0,.18-.05.18-.12s-.08-.12-.18-.12h0Z"/>
            <path class="cls-1" d="m7.91,21.91l-7.91.12,7.91.12c.1,0,.18-.05.18-.12s-.08-.12-.18-.12h0Z"/>
          </g>
          <g>
            <path class="cls-1" d="m22.15,22.33l-.12,7.91-.12-7.91c0-.1.05-.18.12-.18s.12.08.12.18h0Z"/>
            <path class="cls-1" d="m21.46,21.66l-.12,7.91-.12-7.91c0-.1.05-.18.12-.18s.12.08.12.18h0Z"/>
            <path class="cls-1" d="m20.77,20.98l-.12,7.91-.12-7.91c0-.1.05-.18.12-.18s.12.08.12.18h0Z"/>
            <path class="cls-1" d="m20.08,20.35l-.12,7.91-.12-7.91c0-.1.05-.18.12-.18s.12.08.12.18h0Z"/>
            <path class="cls-1" d="m19.39,19.53l-.12,7.91-.12-7.91c0-.1.05-.18.12-.18s.12.08.12.18h0Z"/>
            <path class="cls-1" d="m18.7,18.96l-.12,7.91-.12-7.91c0-.1.05-.18.12-.18s.12.08.12.18h0Z"/>
            <path class="cls-1" d="m18.01,18.14l-.12,7.91-.12-7.91c0-.1.05-.18.12-.18s.12.08.12.18h0Z"/>
            <path class="cls-1" d="m17.32,17.51l-.12,7.91-.12-7.91c0-.1.05-.18.12-.18s.12.08.12.18h0Z"/>
            <path class="cls-1" d="m16.62,16.72l-.12,7.91-.12-7.91c0-.1.05-.18.12-.18s.12.08.12.18h0Z"/>
            <path class="cls-1" d="m15.93,16.11l-.12,7.91-.12-7.91c0-.1.05-.18.12-.18s.12.08.12.18h0Z"/>
            <path class="cls-1" d="m15.24,15.4l-.12,7.91-.12-7.91c0-.1.05-.18.12-.18s.12.08.12.18h0Z"/>
            <path class="cls-1" d="m14.55,16.11l-.12,7.91-.12-7.91c0-.1.05-.18.12-.18s.12.08.12.18h0Z"/>
            <path class="cls-1" d="m13.86,16.72l-.12,7.91-.12-7.91c0-.1.05-.18.12-.18s.12.08.12.18h0Z"/>
            <path class="cls-1" d="m13.17,17.51l-.12,7.91-.12-7.91c0-.1.05-.18.12-.18s.12.08.12.18h0Z"/>
            <path class="cls-1" d="m12.48,18.14l-.12,7.91-.12-7.91c0-.1.05-.18.12-.18s.12.08.12.18h0Z"/>
            <path class="cls-1" d="m11.78,18.96l-.12,7.91-.12-7.91c0-.1.05-.18.12-.18s.12.08.12.18h0Z"/>
            <path class="cls-1" d="m11.09,19.53l-.12,7.91-.12-7.91c0-.1.05-.18.12-.18s.12.08.12.18h0Z"/>
            <path class="cls-1" d="m10.4,20.35l-.12,7.91-.12-7.91c0-.1.05-.18.12-.18s.12.08.12.18h0Z"/>
            <path class="cls-1" d="m9.71,20.98l-.12,7.91-.12-7.91c0-.1.05-.18.12-.18s.12.08.12.18h0Z"/>
            <path class="cls-1" d="m9.02,21.66l-.12,7.91-.12-7.91c0-.1.05-.18.12-.18s.12.08.12.18h0Z"/>
            <path class="cls-1" d="m8.33,22.33l-.12,7.91-.12-7.91c0-.1.05-.18.12-.18s.12.08.12.18h0Z"/>
          </g>
          <g>
            <path class="cls-1" d="m22.15,7.91l-.12-7.91-.12,7.91c0,.1.05.18.12.18s.12-.08.12-.18h0Z"/>
            <path class="cls-1" d="m21.46,8.58l-.12-7.91-.12,7.91c0,.1.05.18.12.18s.12-.08.12-.18h0Z"/>
            <path class="cls-1" d="m20.77,9.26l-.12-7.91-.12,7.91c0,.1.05.18.12.18s.12-.08.12-.18h0Z"/>
            <path class="cls-1" d="m20.08,9.89l-.12-7.91-.12,7.91c0,.1.05.18.12.18s.12-.08.12-.18h0Z"/>
            <path class="cls-1" d="m19.39,10.71l-.12-7.91-.12,7.91c0,.1.05.18.12.18s.12-.08.12-.18h0Z"/>
            <path class="cls-1" d="m18.7,11.27l-.12-7.91-.12,7.91c0,.1.05.18.12.18s.12-.08.12-.18h0Z"/>
            <path class="cls-1" d="m18.01,12.1l-.12-7.91-.12,7.91c0,.1.05.18.12.18s.12-.08.12-.18h0Z"/>
            <path class="cls-1" d="m17.31,12.73l-.12-7.91-.12,7.91c0,.1.05.18.12.18s.12-.08.12-.18h0Z"/>
            <path class="cls-1" d="m16.62,13.52l-.12-7.91-.12,7.91c0,.1.05.18.12.18s.12-.08.12-.18h0Z"/>
            <path class="cls-1" d="m15.93,14.12l-.12-7.91-.12,7.91c0,.1.05.18.12.18s.12-.08.12-.18h0Z"/>
            <path class="cls-1" d="m15.24,14.84l-.12-7.91-.12,7.91c0,.1.05.18.12.18s.12-.08.12-.18h0Z"/>
            <path class="cls-1" d="m14.55,14.12l-.12-7.91-.12,7.91c0,.1.05.18.12.18s.12-.08.12-.18h0Z"/>
            <path class="cls-1" d="m13.86,13.52l-.12-7.91-.12,7.91c0,.1.05.18.12.18s.12-.08.12-.18h0Z"/>
            <path class="cls-1" d="m13.17,12.73l-.12-7.91-.12,7.91c0,.1.05.18.12.18s.12-.08.12-.18h0Z"/>
            <path class="cls-1" d="m12.48,12.1l-.12-7.91-.12,7.91c0,.1.05.18.12.18s.12-.08.12-.18h0Z"/>
            <path class="cls-1" d="m11.78,11.27l-.12-7.91-.12,7.91c0,.1.05.18.12.18s.12-.08.12-.18h0Z"/>
            <path class="cls-1" d="m11.09,10.71l-.12-7.91-.12,7.91c0,.1.05.18.12.18s.12-.08.12-.18h0Z"/>
            <path class="cls-1" d="m10.4,9.89l-.12-7.91-.12,7.91c0,.1.05.18.12.18s.12-.08.12-.18h0Z"/>
            <path class="cls-1" d="m9.71,9.26l-.12-7.91-.12,7.91c0,.1.05.18.12.18s.12-.08.12-.18h0Z"/>
            <path class="cls-1" d="m9.02,8.58l-.12-7.91-.12,7.91c0,.1.05.18.12.18s.12-.08.12-.18h0Z"/>
            <path class="cls-1" d="m8.33,7.91l-.12-7.91-.12,7.91c0,.1.05.18.12.18s.12-.08.12-.18h0Z"/>
          </g>
        </g>
      </g>
    </g>
  </g>
</svg>